<svg xmlns="http://www.w3.org/2000/svg" width="2048" height="2048" viewBox="0 0 2048 2048" version="1.1">
	<path d="M 1019.375 795.199 C 1017.917 797.508, 1015.830 801.548, 1014.738 804.176 C 1013.240 807.780, 1011.682 809.582, 1008.402 811.505 C 1002.792 814.792, 992.461 826.946, 989.280 834 C 987.916 837.025, 986.086 842.393, 985.213 845.928 C 984.339 849.464, 982.214 854.453, 980.491 857.014 C 977.336 861.702, 971.592 877.007, 968.513 888.929 C 966.593 896.363, 963.374 903.065, 957.719 911.406 L 953.714 917.311 931.107 916.666 C 911.409 916.103, 892.277 914.717, 838 909.919 C 821.481 908.459, 784.717 903.348, 773.846 901 C 764.340 898.947, 752.582 895.313, 735.035 889.007 C 728.729 886.741, 719.279 884.206, 714.035 883.373 C 698.459 880.902, 665.880 880.513, 640 882.491 C 608.973 884.861, 563.043 886.640, 554 885.821 C 540.299 884.581, 506.090 884.940, 494.056 886.450 C 487.700 887.248, 477.165 888.387, 470.645 888.980 C 464.125 889.574, 454 890.943, 448.145 892.023 C 442.290 893.103, 433.450 894.720, 428.500 895.616 C 415.141 898.036, 403.866 901.508, 391 907.164 C 377.638 913.037, 374.696 915.270, 375.456 918.956 C 375.955 921.375, 375.552 921.640, 367.241 924.350 C 324.672 938.233, 290 953.376, 290 958.084 C 290 961.644, 300.823 966.913, 308.432 967.058 C 310.973 967.107, 310.298 967.594, 304.500 969.895 C 294.153 974.002, 285.338 978.668, 267.500 989.480 C 251.793 999.001, 245 1004.177, 245 1006.625 C 245 1007.303, 247.381 1008.550, 250.290 1009.396 C 264.289 1013.466, 268.660 1014.233, 275 1013.737 C 278.575 1013.457, 283.525 1013.536, 286 1013.912 C 290.058 1014.529, 290.254 1014.678, 288 1015.421 C 284.303 1016.639, 263.061 1027.344, 250.779 1034.177 C 241.147 1039.536, 235 1044.554, 235 1047.056 C 235 1047.553, 236.782 1048.868, 238.960 1049.980 C 242.604 1051.839, 244.814 1052, 266.651 1052 L 290.382 1052 284.778 1055.375 C 272.830 1062.569, 260 1074.132, 260 1077.705 C 260 1080.373, 265.366 1081.404, 279 1081.356 C 293.744 1081.303, 301.900 1079.917, 316 1075.067 C 320.675 1073.459, 329.986 1070.519, 336.692 1068.534 C 343.397 1066.549, 353.747 1062.890, 359.692 1060.403 C 365.636 1057.915, 370.050 1056.281, 369.500 1056.772 C 367.640 1058.431, 343.562 1075.622, 334.210 1081.969 C 324.208 1088.756, 320.632 1092.443, 317.008 1099.699 L 314.693 1104.333 316.918 1106.135 C 318.142 1107.125, 320.573 1108.147, 322.321 1108.405 C 324.070 1108.663, 328.548 1109.322, 332.274 1109.870 C 341.043 1111.160, 362.789 1108.097, 370.871 1104.434 C 377.472 1101.443, 377.425 1101.442, 378.799 1104.459 C 380.062 1107.231, 384.853 1109.932, 393.072 1112.507 C 398.944 1114.347, 398.787 1114.361, 417.523 1110.293 C 419.196 1109.930, 419.750 1110.618, 420.727 1114.268 C 422.447 1120.700, 427.756 1125.441, 435.625 1127.571 C 441.743 1129.227, 446.115 1129.203, 456 1127.459 C 459.216 1126.892, 459.612 1127.099, 460.874 1130.011 C 463.025 1134.974, 468.647 1139.909, 476.361 1143.606 C 482.607 1146.599, 484.397 1147, 491.510 1147 L 499.576 1147 503.192 1151.326 C 507.275 1156.210, 518.218 1162.415, 524.579 1163.453 C 526.823 1163.819, 531.701 1163.588, 535.420 1162.940 L 542.183 1161.763 546.341 1165.777 C 551.258 1170.523, 557.077 1173.609, 563.845 1175.060 C 567.715 1175.890, 569.424 1176.945, 571.906 1180.032 C 575.638 1184.677, 586.985 1190.435, 594.486 1191.491 C 598.193 1192.013, 600.470 1193.096, 603.366 1195.711 C 609.069 1200.864, 616.951 1204.105, 626.330 1205.154 C 630.792 1205.653, 635.589 1205.810, 636.989 1205.502 C 638.770 1205.111, 640.565 1205.703, 642.964 1207.473 C 644.850 1208.865, 648.892 1210.950, 651.947 1212.107 C 656.630 1213.881, 658.800 1214.115, 665.797 1213.596 C 673.885 1212.997, 674.187 1213.055, 677.797 1215.917 C 683.421 1220.375, 691.208 1222.260, 699.076 1221.068 C 702.609 1220.532, 706.850 1219.693, 708.500 1219.202 C 711.050 1218.443, 711.976 1218.721, 714.668 1221.052 C 722.922 1228.199, 737.898 1230.370, 749.848 1226.153 L 756.197 1223.913 759.724 1226.706 C 761.665 1228.243, 764.349 1230.346, 765.690 1231.380 C 771.098 1235.551, 780.196 1234.132, 791.041 1227.428 L 794.583 1225.238 797.752 1228.070 C 803.753 1233.432, 811.774 1233.884, 823.923 1229.546 C 827.980 1228.097, 828.703 1228.103, 832.670 1229.618 C 838.690 1231.917, 848.673 1231.039, 856.465 1227.525 C 862.025 1225.018, 862.640 1224.935, 865.512 1226.304 C 874.816 1230.741, 887.049 1230.470, 895.137 1225.646 C 898.943 1223.377, 899.415 1223.321, 903.741 1224.623 C 909.581 1226.380, 914.002 1226.262, 921.500 1224.149 C 927.385 1222.491, 927.577 1222.500, 931.500 1224.637 C 933.700 1225.835, 938.042 1227.329, 941.148 1227.957 C 946.399 1229.019, 946.836 1229.325, 947.361 1232.300 C 948.009 1235.976, 950.420 1263.513, 952.018 1285.500 C 952.618 1293.750, 953.860 1305, 954.778 1310.500 C 957.244 1325.271, 956.616 1345.908, 953.014 1368.500 C 951.435 1378.400, 949.451 1391.900, 948.605 1398.500 C 944.016 1434.271, 942.686 1444.430, 939.964 1464.500 C 938.323 1476.600, 936.269 1491.622, 935.399 1497.883 C 934.433 1504.841, 933.769 1517.280, 933.691 1529.883 C 933.578 1548.092, 933.793 1551.132, 935.531 1555.915 C 937.772 1562.078, 937.963 1562.221, 947.597 1564.969 C 954.252 1566.867, 954.809 1567.249, 956.547 1571.105 C 959.782 1578.278, 966.006 1580.574, 977.567 1578.860 C 984.366 1577.851, 984.778 1577.909, 988.456 1580.406 C 993.172 1583.606, 999.004 1583.818, 1004.296 1580.981 C 1007.429 1579.302, 1008.435 1579.166, 1010.281 1580.172 C 1013.264 1581.797, 1034.736 1581.797, 1037.719 1580.172 C 1039.565 1579.166, 1040.571 1579.302, 1043.704 1580.981 C 1048.996 1583.818, 1054.828 1583.606, 1059.544 1580.406 C 1063.222 1577.909, 1063.634 1577.851, 1070.433 1578.860 C 1081.994 1580.574, 1088.218 1578.278, 1091.453 1571.105 C 1093.191 1567.249, 1093.748 1566.867, 1100.403 1564.969 C 1110.037 1562.221, 1110.228 1562.078, 1112.469 1555.915 C 1114.207 1551.132, 1114.422 1548.092, 1114.309 1529.883 C 1114.231 1517.280, 1113.567 1504.841, 1112.601 1497.883 C 1111.731 1491.622, 1109.677 1476.600, 1108.036 1464.500 C 1105.314 1444.430, 1103.984 1434.271, 1099.395 1398.500 C 1098.549 1391.900, 1096.565 1378.400, 1094.986 1368.500 C 1091.384 1345.908, 1090.756 1325.271, 1093.222 1310.500 C 1094.140 1305, 1095.382 1293.750, 1095.982 1285.500 C 1097.580 1263.513, 1099.991 1235.976, 1100.639 1232.300 C 1101.164 1229.325, 1101.601 1229.019, 1106.852 1227.957 C 1109.958 1227.329, 1114.300 1225.835, 1116.500 1224.637 C 1120.423 1222.500, 1120.615 1222.491, 1126.500 1224.149 C 1133.998 1226.262, 1138.419 1226.380, 1144.259 1224.623 C 1148.585 1223.321, 1149.057 1223.377, 1152.863 1225.646 C 1160.951 1230.470, 1173.184 1230.741, 1182.488 1226.304 C 1185.360 1224.935, 1185.975 1225.018, 1191.535 1227.525 C 1199.327 1231.039, 1209.310 1231.917, 1215.330 1229.618 C 1219.297 1228.103, 1220.020 1228.097, 1224.077 1229.546 C 1236.226 1233.884, 1244.247 1233.432, 1250.248 1228.070 L 1253.417 1225.238 1256.959 1227.428 C 1268.719 1234.698, 1276.997 1235.613, 1283.620 1230.374 C 1292.648 1223.232, 1291.125 1223.672, 1298.182 1226.163 C 1310.100 1230.370, 1325.087 1228.191, 1333.332 1221.052 C 1336.024 1218.721, 1336.950 1218.443, 1339.500 1219.202 C 1341.150 1219.693, 1345.391 1220.532, 1348.924 1221.068 C 1356.792 1222.260, 1364.579 1220.375, 1370.203 1215.917 C 1373.813 1213.055, 1374.115 1212.997, 1382.203 1213.596 C 1389.200 1214.115, 1391.370 1213.881, 1396.053 1212.107 C 1399.108 1210.950, 1403.150 1208.865, 1405.036 1207.473 C 1407.435 1205.703, 1409.230 1205.111, 1411.011 1205.502 C 1412.411 1205.810, 1417.208 1205.653, 1421.670 1205.154 C 1431.049 1204.105, 1438.931 1200.864, 1444.634 1195.711 C 1447.530 1193.096, 1449.807 1192.013, 1453.514 1191.491 C 1461.015 1190.435, 1472.362 1184.677, 1476.094 1180.032 C 1478.576 1176.945, 1480.285 1175.890, 1484.155 1175.060 C 1490.923 1173.609, 1496.742 1170.523, 1501.659 1165.777 L 1505.817 1161.763 1512.580 1162.940 C 1516.299 1163.588, 1521.177 1163.819, 1523.421 1163.453 C 1529.782 1162.415, 1540.725 1156.210, 1544.808 1151.326 L 1548.424 1147 1556.490 1147 C 1563.603 1147, 1565.393 1146.599, 1571.639 1143.606 C 1579.353 1139.909, 1584.975 1134.974, 1587.126 1130.011 C 1588.388 1127.099, 1588.784 1126.892, 1592 1127.459 C 1601.885 1129.203, 1606.257 1129.227, 1612.375 1127.571 C 1620.244 1125.441, 1625.553 1120.700, 1627.273 1114.268 C 1628.250 1110.618, 1628.804 1109.930, 1630.477 1110.293 C 1649.213 1114.361, 1649.056 1114.347, 1654.928 1112.507 C 1663.147 1109.932, 1667.938 1107.231, 1669.201 1104.459 C 1670.575 1101.442, 1670.528 1101.443, 1677.129 1104.434 C 1685.211 1108.097, 1706.957 1111.160, 1715.726 1109.870 C 1719.452 1109.322, 1723.930 1108.663, 1725.679 1108.405 C 1727.427 1108.147, 1729.858 1107.125, 1731.082 1106.135 L 1733.307 1104.333 1730.992 1099.699 C 1727.368 1092.443, 1723.792 1088.756, 1713.790 1081.969 C 1704.438 1075.622, 1680.360 1058.431, 1678.500 1056.772 C 1677.950 1056.281, 1682.364 1057.915, 1688.308 1060.403 C 1694.253 1062.890, 1704.603 1066.549, 1711.308 1068.534 C 1718.014 1070.519, 1727.325 1073.459, 1732 1075.067 C 1746.100 1079.917, 1754.256 1081.303, 1769 1081.356 C 1782.634 1081.404, 1788 1080.373, 1788 1077.705 C 1788 1074.132, 1775.170 1062.569, 1763.222 1055.375 L 1757.618 1052 1781.349 1052 C 1803.186 1052, 1805.396 1051.839, 1809.040 1049.980 C 1811.218 1048.868, 1813 1047.553, 1813 1047.056 C 1813 1044.554, 1806.853 1039.536, 1797.221 1034.177 C 1784.939 1027.344, 1763.697 1016.639, 1760 1015.421 C 1757.746 1014.678, 1757.942 1014.529, 1762 1013.912 C 1764.475 1013.536, 1769.425 1013.457, 1773 1013.737 C 1779.340 1014.233, 1783.711 1013.466, 1797.710 1009.396 C 1800.619 1008.550, 1803 1007.303, 1803 1006.625 C 1803 1004.177, 1796.207 999.001, 1780.500 989.480 C 1762.662 978.668, 1753.847 974.002, 1743.500 969.895 C 1737.702 967.594, 1737.027 967.107, 1739.568 967.058 C 1747.177 966.913, 1758 961.644, 1758 958.084 C 1758 953.376, 1723.328 938.233, 1680.759 924.350 C 1672.448 921.640, 1672.045 921.375, 1672.544 918.956 C 1673.304 915.270, 1670.362 913.037, 1657 907.164 C 1644.134 901.508, 1632.859 898.036, 1619.500 895.616 C 1614.550 894.720, 1605.710 893.103, 1599.855 892.023 C 1594 890.943, 1583.875 889.574, 1577.355 888.980 C 1570.835 888.387, 1560.300 887.248, 1553.944 886.450 C 1541.910 884.940, 1507.701 884.581, 1494 885.821 C 1484.957 886.640, 1439.027 884.861, 1408 882.491 C 1382.120 880.513, 1349.541 880.902, 1333.965 883.373 C 1328.721 884.206, 1319.271 886.741, 1312.965 889.007 C 1295.418 895.313, 1283.660 898.947, 1274.154 901 C 1263.283 903.348, 1226.519 908.459, 1210 909.919 C 1155.723 914.717, 1136.591 916.103, 1116.893 916.666 L 1094.286 917.311 1090.281 911.406 C 1084.491 902.866, 1081.395 896.324, 1079.164 887.911 C 1075.848 875.408, 1070.306 860.888, 1067.129 856.381 C 1065.468 854.024, 1063.798 850.442, 1063.419 848.421 C 1062.536 843.713, 1058.375 832.222, 1056.539 829.419 C 1052.686 823.539, 1043.414 813.741, 1039.571 811.489 C 1036.319 809.583, 1034.756 807.771, 1033.262 804.176 C 1030.077 796.511, 1026.203 791, 1024 791 C 1022.768 791, 1021.028 792.579, 1019.375 795.199" stroke="none" fill="black" fill-rule="evenodd"/>
</svg>